<?xml version="1.0" standalone="no"?>
<!DOCTYPE svg PUBLIC "-//W3C//DTD SVG 20010904//EN"
 "http://www.w3.org/TR/2001/REC-SVG-20010904/DTD/svg10.dtd">
<svg version="1.0" xmlns="http://www.w3.org/2000/svg"
 width="427.000000pt" height="427.000000pt" viewBox="0 0 427.000000 427.000000"
 preserveAspectRatio="xMidYMid meet">
<metadata>
Created by potrace 1.14, written by Peter Selinger 2001-2017
</metadata>
<g transform="translate(0.000000,427.000000) scale(0.100000,-0.100000)"
fill="#000000" stroke="none">
<path d="M1753 4259 c-184 -35 -323 -250 -323 -498 0 -114 37 -304 92 -470 69
-207 73 -283 32 -494 l-6 -28 -66 7 c-37 4 -83 7 -102 7 -19 -1 -74 -1 -122
-2 -93 -1 -131 -11 -165 -43 -47 -44 -20 -144 51 -187 27 -17 36 -32 56 -103
21 -72 30 -88 74 -131 28 -27 68 -58 88 -68 44 -22 44 -27 19 -127 -12 -50
-25 -78 -40 -89 -28 -19 -43 -55 -46 -115 -2 -27 -10 -55 -19 -64 -20 -20 -20
-33 0 -55 14 -16 14 -18 -4 -23 -27 -9 -32 -25 -20 -77 5 -24 9 -51 9 -59 1
-19 -124 -517 -197 -788 -31 -114 -68 -256 -84 -317 -16 -60 -43 -162 -60
-225 -38 -135 -57 -228 -52 -252 4 -19 45 -33 141 -49 111 -18 132 -10 151 61
14 51 48 210 60 275 5 28 34 169 64 315 30 146 73 355 96 465 22 110 48 224
56 254 l16 54 23 -27 c16 -18 32 -65 51 -144 25 -104 28 -138 30 -305 1 -127
-2 -195 -9 -211 -8 -14 -12 -81 -11 -191 0 -153 2 -174 22 -214 21 -43 21 -44
2 -69 -27 -34 -27 -72 1 -72 11 0 29 -5 39 -10 13 -7 58 -6 140 2 99 10 127
10 153 -1 18 -8 53 -21 80 -29 44 -15 47 -18 47 -52 0 -30 5 -37 32 -49 24
-11 41 -12 69 -4 26 7 41 7 48 0 18 -18 86 10 138 57 48 43 120 86 146 86 7 0
22 8 33 18 30 27 72 52 88 52 8 0 26 25 41 55 l26 55 117 0 c241 0 559 -54
587 -100 10 -15 -30 -57 -79 -82 -21 -11 -82 -31 -134 -44 -53 -13 -98 -26
-100 -29 -11 -11 70 -4 144 11 138 29 224 81 224 136 0 11 -15 35 -33 53 -52
52 -207 91 -473 120 -82 9 -174 19 -204 23 l-55 7 -6 50 c-3 28 -7 55 -8 60
-2 6 -3 25 -2 44 1 29 3 32 16 21 18 -15 18 -14 6 27 -7 26 -7 31 5 26 16 -6
20 22 4 32 -5 3 -10 15 -10 27 0 11 -6 34 -14 51 -21 48 -27 117 -10 117 8 0
13 8 11 17 -3 20 -56 103 -66 103 -3 0 -12 15 -20 33 -8 17 -23 42 -33 53 -11
12 -20 28 -22 36 -1 8 -11 25 -23 38 -12 12 -20 27 -17 32 3 4 -1 11 -10 14
-8 3 -12 12 -10 19 3 7 -3 16 -14 19 -11 4 -26 14 -34 23 -11 14 -11 16 2 9 9
-4 8 -1 -2 7 -10 8 -18 19 -18 25 0 6 -6 13 -12 15 -10 4 -10 6 0 6 19 1 -5
41 -25 41 -10 0 -14 6 -10 19 3 13 -7 33 -29 57 -18 21 -31 41 -28 45 2 4 -8
21 -22 38 -14 17 -27 37 -28 45 -1 7 -14 27 -28 44 -24 29 -68 128 -68 153 0
5 -7 24 -16 42 -19 35 -26 187 -9 187 6 0 33 -7 60 -16 82 -25 218 1 294 56
51 37 97 126 87 166 -11 44 3 49 131 46 184 -4 191 -4 241 21 55 27 73 60 104
181 40 158 15 310 -86 532 -29 62 -47 83 -152 178 -167 151 -196 164 -294 127
-57 -22 -120 -72 -240 -191 -47 -47 -122 -116 -167 -153 -45 -38 -101 -89
-123 -115 -34 -38 -47 -46 -78 -47 -20 -1 -56 -5 -79 -9 l-41 -7 8 36 c10 46
54 133 83 165 12 14 57 54 99 88 119 98 198 212 245 351 46 138 33 350 -33
518 -84 211 -226 314 -391 282z"/>
</g>
</svg>
